<svg id="Layer_1" data-name="Layer 1" xmlns="http://www.w3.org/2000/svg" viewBox="0 0 155.7 119.21">
  <title>uploadicon</title>
  <path d="M145.7,0H10A10,10,0,0,0,0,10v99.21a10,10,0,0,0,10,10H145.7a10,10,0,0,0,10-10V10A10,10,0,0,0,145.7,0ZM98.47,6h11.66V17.7H98.47ZM80.84,6H92.5V17.7H80.84ZM63.21,6H74.87V17.7H63.21ZM45.58,6H57.24V17.7H45.58ZM22,113.15H10.32V101.49H22ZM22,17.7H10.32V6H22Zm17.63,95.45H28V101.49H39.61Zm0-95.45H28V6H39.61Zm17.63,95.45H45.58V101.49H57.24Zm17.63,0H63.21V101.49H74.87Zm17.63,0H80.84V101.49H92.5Zm17.63,0H98.47V101.49h11.66ZM88.56,64.65V86.94H67.14V64.65H43.31l34.54-34.4,34.55,34.4Zm39.19,48.5H116.09V101.49h11.66Zm0-95.45H116.09V6h11.66Zm17.63,95.45H133.72V101.49h11.66Zm0-95.45H133.72V6h11.66Z"/>
</svg>
